<svg width="28" height="29" viewBox="0 0 28 29" fill="none" xmlns="http://www.w3.org/2000/svg">
<g id="Free Shipping">
<path id="Vector" d="M1.68 4.97998C0.759063 4.97998 0 5.73904 0 6.65998V20.1C0 21.0209 0.759063 21.78 1.68 21.78H3.9725C4.23938 23.3681 5.61969 24.58 7.28 24.58C8.94031 24.58 10.3206 23.3681 10.5875 21.78H15.785C16.1919 21.78 16.5528 21.6028 16.835 21.3425C17.1238 21.6006 17.4934 21.78 17.92 21.78H18.5325C18.7994 23.3681 20.1797 24.58 21.84 24.58C23.6884 24.58 25.2 23.0684 25.2 21.22C25.2 19.3715 23.6884 17.86 21.84 17.86C20.1797 17.86 18.7994 19.0719 18.5325 20.66H17.92C17.8259 20.66 17.675 20.59 17.5525 20.4675C17.43 20.345 17.36 20.194 17.36 20.1V9.45998C17.36 9.36592 17.43 9.21498 17.5525 9.09248C17.675 8.96998 17.8259 8.89998 17.92 8.89998H22.4C22.8616 8.89998 23.5047 9.41842 23.905 9.91498L23.975 10.02H21.28C20.3831 10.02 19.6 10.744 19.6 11.7V13.94C19.6 14.4059 19.81 14.815 20.1075 15.1125C20.405 15.41 20.8141 15.62 21.28 15.62H26.88V20.1C26.88 20.194 26.81 20.345 26.6875 20.4675C26.565 20.59 26.4141 20.66 26.32 20.66H25.2V21.78H26.32C26.7859 21.78 27.195 21.57 27.4925 21.2725C27.79 20.975 28 20.5659 28 20.1V14.7275C28 14.0975 27.7594 13.52 27.545 13.0825C27.3306 12.645 27.1075 12.33 27.1075 12.33V12.3125L24.815 9.23248H24.7975V9.21498C24.3009 8.59373 23.5047 7.77998 22.4 7.77998H17.92C17.7188 7.77998 17.535 7.81717 17.36 7.88498V6.65998C17.36 5.73904 16.6009 4.97998 15.68 4.97998H1.68ZM1.68 6.09998H15.68C15.9906 6.09998 16.24 6.34936 16.24 6.65998V20.205C16.24 20.4653 16.0453 20.66 15.785 20.66H10.5875C10.3206 19.0719 8.94031 17.86 7.28 17.86C5.61969 17.86 4.23938 19.0719 3.9725 20.66H1.68C1.36938 20.66 1.12 20.4106 1.12 20.1V6.65998C1.12 6.34936 1.36938 6.09998 1.68 6.09998ZM21.28 11.14H24.815L26.1975 12.9775L26.215 12.995C26.2259 13.0103 26.3769 13.2247 26.5475 13.5725C26.6897 13.8612 26.7641 14.2047 26.81 14.5H21.28C21.1859 14.5 21.035 14.43 20.9125 14.3075C20.79 14.185 20.72 14.034 20.72 13.94V11.7C20.72 11.4244 21.0569 11.14 21.28 11.14ZM2.8 11.7V14.955H3.535V13.6075H4.865V13.0475H3.535V12.3125H5.04V11.7H2.8ZM5.6 11.7V14.8325H6.2125V13.6075H6.9475C7.45063 13.6075 7.45063 13.9969 7.5075 14.5C7.5075 14.6115 7.50313 14.7209 7.56 14.8325H8.295C8.18344 14.7209 8.1725 14.3294 8.1725 14.2725C8.1725 13.4894 7.84656 13.38 7.735 13.38C7.90344 13.3231 8.225 13.0956 8.225 12.5925C8.225 11.864 7.56 11.7 7.28 11.7H5.6ZM8.96 11.7V14.955H11.375V14.325H9.625V13.555H11.2V12.995H9.625V12.3125H11.305V11.7H8.96ZM12.145 11.7V14.955H14.56V14.325H12.8275V13.555H14.385V12.995H12.8275V12.3125H14.5075V11.7H12.145ZM6.265 12.26H7.0525C7.22094 12.26 7.56 12.3234 7.56 12.715C7.56 13.1634 7.22094 13.1525 7.0525 13.1525H6.265V12.26ZM7.28 18.98C8.52469 18.98 9.52 19.9753 9.52 21.22C9.52 22.4647 8.52469 23.46 7.28 23.46C6.03531 23.46 5.04 22.4647 5.04 21.22C5.04 19.9753 6.03531 18.98 7.28 18.98ZM21.84 18.98C23.0847 18.98 24.08 19.9753 24.08 21.22C24.08 22.4647 23.0847 23.46 21.84 23.46C20.5953 23.46 19.6 22.4647 19.6 21.22C19.6 19.9753 20.5953 18.98 21.84 18.98Z" fill="#F7F7F6"/>
</g>
</svg>
