<svg xmlns="http://www.w3.org/2000/svg" width="1440" height="51" viewBox="0 0 1440 51" fill="none">
    <path fill-rule="evenodd" clip-rule="evenodd"
        d="M0 0H1440V21.779V41V50.7365C1433.43 49.7337 1428.09 45.96 1425.98 41H1424.02C1421.54 46.8154 1414.64 51 1406.5 51C1398.36 51 1391.46 46.8154 1388.98 41H1387.02C1384.54 46.8154 1377.64 51 1369.5 51C1361.36 51 1354.46 46.8154 1351.98 41H1350.02C1347.54 46.8154 1340.64 51 1332.5 51C1324.36 51 1317.46 46.8154 1314.98 41H1313.02C1310.54 46.8154 1303.64 51 1295.5 51C1287.36 51 1280.46 46.8154 1277.98 41H1276.02C1273.54 46.8154 1266.64 51 1258.5 51C1250.36 51 1243.46 46.8154 1240.98 41H1239.02C1236.54 46.8154 1229.64 51 1221.5 51C1213.36 51 1206.46 46.8154 1203.98 41H1202.02C1199.54 46.8154 1192.64 51 1184.5 51C1176.36 51 1169.46 46.8154 1166.98 41H1165.02C1162.54 46.8154 1155.64 51 1147.5 51C1139.36 51 1132.46 46.8154 1129.98 41H1128.02C1125.54 46.8154 1118.64 51 1110.5 51C1102.36 51 1095.46 46.8154 1092.98 41H1091.02C1088.54 46.8154 1081.64 51 1073.5 51C1065.36 51 1058.46 46.8154 1055.98 41H1054.02C1051.54 46.8154 1044.64 51 1036.5 51C1028.36 51 1021.46 46.8154 1018.98 41H1017.02C1014.54 46.8154 1007.64 51 999.5 51C991.365 51 984.456 46.8154 981.978 41H980.022C977.544 46.8154 970.635 51 962.5 51C954.365 51 947.456 46.8154 944.978 41H943.022C940.544 46.8154 933.635 51 925.5 51C917.365 51 910.456 46.8154 907.978 41H906.022C903.544 46.8154 896.635 51 888.5 51C880.365 51 873.456 46.8154 870.978 41H869.022C866.544 46.8154 859.635 51 851.5 51C843.365 51 836.456 46.8154 833.978 41H832.022C829.544 46.8154 822.635 51 814.5 51C806.365 51 799.456 46.8154 796.978 41H795.022C792.544 46.8154 785.635 51 777.5 51C769.365 51 762.456 46.8154 759.978 41H758.022C755.544 46.8154 748.635 51 740.5 51C732.365 51 725.456 46.8154 722.978 41H721.022C718.544 46.8154 711.635 51 703.5 51C695.365 51 688.456 46.8154 685.978 41H684.022C681.544 46.8154 674.635 51 666.5 51C658.365 51 651.456 46.8154 648.978 41H647.022C644.544 46.8154 637.635 51 629.5 51C621.365 51 614.456 46.8154 611.978 41H610.022C607.544 46.8154 600.635 51 592.5 51C584.365 51 577.456 46.8154 574.978 41H573.022C570.544 46.8154 563.635 51 555.5 51C547.365 51 540.456 46.8154 537.978 41H536.022C533.544 46.8154 526.635 51 518.5 51C510.365 51 503.456 46.8154 500.978 41H499.022C496.544 46.8154 489.635 51 481.5 51C473.365 51 466.456 46.8154 463.978 41H462.022C459.544 46.8154 452.635 51 444.5 51C436.365 51 429.456 46.8154 426.978 41H425.022C422.544 46.8154 415.635 51 407.5 51C399.365 51 392.456 46.8154 389.978 41H388.022C385.544 46.8154 378.635 51 370.5 51C362.365 51 355.456 46.8154 352.978 41H351.022C348.544 46.8154 341.635 51 333.5 51C325.365 51 318.456 46.8154 315.978 41H314.022C311.544 46.8154 304.635 51 296.5 51C288.365 51 281.456 46.8154 278.978 41H277.022C274.544 46.8154 267.635 51 259.5 51C251.365 51 244.456 46.8154 241.978 41H240.022C237.544 46.8154 230.635 51 222.5 51C214.365 51 207.456 46.8154 204.978 41H203.022C200.544 46.8154 193.635 51 185.5 51C177.365 51 170.456 46.8154 167.978 41H166.022C163.544 46.8154 156.635 51 148.5 51C140.365 51 133.456 46.8154 130.978 41H129.022C126.544 46.8154 119.635 51 111.5 51C103.365 51 96.4557 46.8154 93.978 41H92.022C89.5443 46.8154 82.6354 51 74.5 51C66.3646 51 59.4557 46.8154 56.978 41H55.022C52.5443 46.8154 45.6354 51 37.5 51C29.3646 51 22.4557 46.8154 19.978 41H18.022C15.5443 46.8154 8.63539 51 0.5 51C0.332806 51 0.16613 50.9982 0 50.9947V41V21.5209V0Z"
        fill="#0F83B2" />
</svg>